<svg width="103" height="106" viewBox="0 0 103 106" fill="none" xmlns="http://www.w3.org/2000/svg">
<circle cx="51.5" cy="51.5" r="51.5" fill="#D9D9D9" fill-opacity="0.47"/>
<path d="M43.3113 86V42C43.3113 37.1467 44.7513 33.28 47.6313 30.4C50.5113 27.4667 54.6179 26 59.9513 26C61.7646 26 63.4979 26.1867 65.1513 26.56C66.8579 26.9333 68.2979 27.52 69.4713 28.32L66.1913 37.36C65.4979 36.88 64.7246 36.5067 63.8713 36.24C63.0179 35.9733 62.1113 35.84 61.1513 35.84C59.3379 35.84 57.9246 36.3733 56.9113 37.44C55.9513 38.4533 55.4713 40 55.4713 42.08V46.08L55.7913 51.44V86H43.3113ZM36.6713 53.52V43.92H66.5113V53.52H36.6713Z" fill="white"/>
</svg>
